
<svg
   viewBox="0 0 297.3463 279.91831"
   height="78.999168mm"
   width="83.917732mm">
  <g
     transform="translate(0,-772.44391)"
     id="layer1">
    <path
       id="path4215"
       d="m 45.490639,1051.7462 c -17.389649,-2.5498 -32.93023,-16.8702 -40.339578,-37.1723 -4.703279,-12.8873 -4.46617,-8.7825 -4.746866,-82.17787 l -0.255656,-66.84797 25.858534,-0.47345 c 14.222194,-0.26041 37.409652,-0.47346 51.527681,-0.47346 l 25.669166,0 -3.764614,4.10714 c -11.370288,12.40488 -17.124038,27.20647 -17.142423,44.09911 -0.02114,19.40119 6.688003,35.19611 20.499127,48.26001 7.54453,7.13636 16.34253,12.12889 27.20147,15.4358 5.63832,1.71706 7.40447,1.91287 17.3488,1.9235 9.21584,0.01 12.02916,-0.2511 16.78571,-1.55697 6.39975,-1.757 15.83143,-6.05195 20.80593,-9.47451 13.43449,-9.24316 23.83704,-25.09196 27.08462,-41.26476 1.4922,-7.43104 1.11486,-22.38553 -0.74148,-29.38646 -2.60537,-9.82578 -8.84069,-21.03965 -15.98604,-28.75 l -3.14423,-3.39286 52.59775,0 52.59774,0 -0.004,63.75 c -0.004,67.85887 -0.14595,71.14481 -3.53305,82.06335 -5.54964,17.8896 -16.96414,31.865 -31.19795,38.1974 -8.67682,3.8602 -6.88792,3.8018 -114.19335,3.7324 -54.607154,-0.035 -100.92433,-0.3045 -102.927072,-0.5981 l 7.1e-5,0 z"
       style="fill:#ded1c1;fill-opacity:1;stroke:#000000;stroke-width:0;stroke-miterlimit:4;stroke-dasharray:none;stroke-opacity:1" />
    <path
       id="path4217"
       d="m 85.735181,817.3957 0,-44.95179 80.626679,0 c 54.00821,0 82.60554,0.3646 86.62058,1.10437 9.48515,1.74762 16.3372,5.54586 24.28645,13.4625 5.71894,5.69549 8.12297,9.1051 11.80845,16.74786 6.25771,12.97692 7.77973,21.17002 7.77973,41.87874 l 0,16.71011 -53.60862,0 -53.60862,0 -4.22261,-2.89457 c -18.65089,-12.78503 -40.91911,-15.38367 -62.01355,-7.2368 -4.00582,1.54709 -9.57534,4.45954 -12.37671,6.47212 -5.04144,3.62191 -5.19643,3.65925 -15.192594,3.65925 l -10.099185,0 0,-44.95179 z m 172.410109,33.75341 c 2.39387,-1.15885 5.37844,-3.54534 6.63238,-5.3033 2.18087,-3.05747 2.2799,-4.05953 2.2799,-23.07124 0,-21.83519 -0.15933,-22.4661 -6.95502,-27.53981 -2.59831,-1.93992 -4.16467,-2.08272 -22.84448,-2.08272 -22.35461,0 -23.00341,0.17673 -28.0895,7.65158 -2.26475,3.32843 -2.32184,3.97318 -2.0203,22.81734 0.35351,22.09284 0.70292,23.16501 8.91723,27.36231 4.08047,2.08502 5.82315,2.27284 21.08768,2.27284 14.80328,0 17.11996,-0.23252 20.99211,-2.107 z"
       style="fill:#9b6954;fill-opacity:1;stroke:#000000;stroke-width:0;stroke-miterlimit:4;stroke-dasharray:none;stroke-opacity:1" />
    <path
       id="path4219"
       d="M 4.9999999e-6,849.09685 C 4.9999999e-6,827.27141 1.73088,817.03439 7.475996,804.88114 c 3.556973,-7.52443 6.461934,-11.97423 11.065784,-16.95045 3.259383,-3.52302 11.064555,-9.70797 12.251088,-9.70797 0.364297,0 0.635708,18.14505 0.635708,42.5 l 0,42.5 -15.714286,0 -15.7142850000001,0 0,-14.12587 z"
       style="fill:#9b6954;fill-opacity:1;stroke:#000000;stroke-width:0;stroke-miterlimit:4;stroke-dasharray:none;stroke-opacity:1" />
    <path
       id="path4221"
       d="m 32.857148,820.086 0,-43.13673 2.678571,-1.06883 c 1.473214,-0.58785 3.883929,-1.40041 5.357143,-1.80569 l 2.678571,-0.73687 0,44.94242 0,44.94242 -5.357142,0 -5.357143,0 0,-43.13672 z"
       style="fill:#fb3958;fill-opacity:1;stroke:#000000;stroke-width:0;stroke-miterlimit:4;stroke-dasharray:none;stroke-opacity:1" />
    <path
       id="path4223"
       d="m 45.000005,818.30603 0,-44.91669 1.607143,-0.4307 c 0.883928,-0.23688 3.9375,-0.43508 6.785714,-0.44045 l 5.178571,-0.01 0,45.35714 0,45.35714 -6.785714,0 -6.785714,0 0,-44.91669 z"
       style="fill:#ffc838;fill-opacity:1;stroke:#000000;stroke-width:0;stroke-miterlimit:4;stroke-dasharray:none;stroke-opacity:1" />
    <path
       id="path4225"
       d="m 60.000005,817.86558 0,-45.35714 5.714286,0 5.714285,0 0,45.35714 0,45.35714 -5.714285,0 -5.714286,0 0,-45.35714 z"
       style="fill:#6dc993;fill-opacity:1;stroke:#000000;stroke-width:0;stroke-miterlimit:4;stroke-dasharray:none;stroke-opacity:1" />
    <path
       id="path4227"
       d="m 72.857148,817.86558 0,-45.35714 5.357143,0 5.357142,0 0,45.35714 0,45.35714 -5.357142,0 -5.357143,0 0,-45.35714 z"
       style="fill:#458eff;fill-opacity:1;stroke:#000000;stroke-width:0;stroke-miterlimit:4;stroke-dasharray:none;stroke-opacity:1" />
    <path
       id="path4229"
       d="m 218.50627,850.55213 c -4.69956,-1.70719 -8.34109,-5.54023 -9.44778,-9.94467 -0.36798,-1.46451 -0.50543,-7.97124 -0.40428,-19.13892 l 0.15324,-16.92006 1.48945,-2.6888 c 1.74183,-3.1444 4.35722,-5.37273 7.87465,-6.70924 2.28082,-0.86665 4.04829,-0.95602 18.90665,-0.95602 15.51915,0 16.54444,0.0575 19.28389,1.08251 3.73107,1.39597 7.2719,4.86051 8.42438,8.24287 1.21153,3.55564 1.25801,34.73081 0.057,38.25547 -1.04805,3.07588 -3.56431,5.91432 -6.86243,7.74109 l -2.7066,1.49914 -17.42513,0.11667 c -13.77914,0.0923 -17.82644,-0.0291 -19.34307,-0.58004 z"
       style="fill:#000000;fill-opacity:1;stroke:#000000;stroke-width:0;stroke-miterlimit:4;stroke-dasharray:none;stroke-opacity:1" />
    <path
       d="m 140.67266,977.01102 c -17.1052,-2.09185 -32.68578,-10.69 -42.963184,-23.70925 -8.79415,-11.14029 -13.280344,-23.09802 -13.943029,-37.16444 -0.527729,-11.20181 1.447545,-20.75897 6.360919,-30.77665 6.38588,-13.01989 16.375314,-23.11313 29.216074,-29.51967 9.32952,-4.6547 16.88133,-6.34074 28.40029,-6.34074 8.69962,0 12.92523,0.6037 19.72867,2.81858 20.35496,6.62661 36.77372,24.00459 42.10264,44.56236 1.83929,6.88845 2.49231,13.86999 2.0571,20.93063 -1.59074,25.80714 -18.64665,47.27734 -42.55718,55.86586 -8.11517,2.91492 -20.21337,4.33477 -28.4023,3.33332 z"
       style="fill:#000000;fill-opacity:1;stroke:#000000;stroke-width:0;stroke-miterlimit:4;stroke-dasharray:none;stroke-opacity:1"
       id="path4231" />
  </g>
</svg>
