<?xml version="1.0" encoding="UTF-8" standalone="no"?>
<!-- Created with Inkscape (http://www.inkscape.org/) -->

<svg
   xmlns:dc="http://purl.org/dc/elements/1.1/"
   xmlns:cc="http://creativecommons.org/ns#"
   xmlns:rdf="http://www.w3.org/1999/02/22-rdf-syntax-ns#"
   xmlns:svg="http://www.w3.org/2000/svg"
   xmlns="http://www.w3.org/2000/svg"
   xmlns:sodipodi="http://sodipodi.sourceforge.net/DTD/sodipodi-0.dtd"
   xmlns:inkscape="http://www.inkscape.org/namespaces/inkscape"
   width="88.627724mm"
   height="73.363556mm"
   viewBox="0 0 314.03524 259.94961"
   id="svg6341"
   version="1.1"
   inkscape:version="0.91 r13725"
   sodipodi:docname="tw.svg">
  <defs
     id="defs6343" />
  <sodipodi:namedview
     id="base"
     pagecolor="#ffffff"
     bordercolor="#666666"
     borderopacity="1.0"
     inkscape:pageopacity="0.0"
     inkscape:pageshadow="2"
     inkscape:zoom="1.4143037"
     inkscape:cx="60.397242"
     inkscape:cy="155.17806"
     inkscape:document-units="px"
     inkscape:current-layer="layer1"
     showgrid="false"
     fit-margin-top="0"
     fit-margin-left="0"
     fit-margin-right="0"
     fit-margin-bottom="0"
     inkscape:window-width="1366"
     inkscape:window-height="705"
     inkscape:window-x="-8"
     inkscape:window-y="-8"
     inkscape:window-maximized="1" />
  <metadata
     id="metadata6346">
    <rdf:RDF>
      <cc:Work
         rdf:about="">
        <dc:format>image/svg+xml</dc:format>
        <dc:type
           rdf:resource="http://purl.org/dc/dcmitype/StillImage" />
        <dc:title></dc:title>
      </cc:Work>
    </rdf:RDF>
  </metadata>
  <g
     inkscape:label="Capa 1"
     inkscape:groupmode="layer"
     id="layer1"
     transform="translate(-5.6036092,-791.76272)">
    <circle
       style="fill:#00aced;fill-opacity:1;stroke:#00aced;stroke-width:1.26110864;stroke-miterlimit:4;stroke-dasharray:none;stroke-opacity:1"
       id="path6360"
       r="64.785622"
       cy="857.17889"
       cx="223.0047" />
    <path
       style="fill:#00aced;fill-opacity:1;stroke:#00aced;stroke-width:0.35642681;stroke-miterlimit:4;stroke-dasharray:none;stroke-opacity:1"
       d="m 267.54134,27.740975 c -0.43921,-9.154318 13.14836,-9.679536 19.08034,-11.415204 5.18121,-1.596381 8.10136,-2.296337 11.39631,-3.784478 4.41357,-1.774357 8.32582,-4.5046987 12.78554,-5.9943329 -1.08792,3.6066129 -3.42494,10.5056939 -4.36102,12.7105149 -0.96685,2.655846 -3.61747,6.052559 -7.06316,9.467408 -3.07226,3.002217 -5.05188,4.839402 -8.50272,7.777457 -2.53833,2.137806 -4.66722,4.358219 -7.40844,5.868559 -0.74022,0 -0.73842,1.65919 -3.48287,-1.041913 -3.83264,-4.947186 -8.89641,-9.296129 -12.44398,-13.588011 z"
       id="path6906"
       inkscape:connector-curvature="0"
       sodipodi:nodetypes="cccccccccc"
       transform="translate(0,792.36218)" />
    <path
       style="fill:#000000;fill-opacity:1;stroke:#000000;stroke-width:0.01113834;stroke-miterlimit:4;stroke-dasharray:none;stroke-opacity:1"
       d=""
       id="path6914"
       inkscape:connector-curvature="0"
       transform="translate(0,792.36218)" />
    <path
       transform="translate(0,792.36218)"
       inkscape:connector-curvature="0"
       id="path6916"
       d=""
       style="fill:#000000;fill-opacity:1;stroke:#000000;stroke-width:0.01113834;stroke-miterlimit:4;stroke-dasharray:none;stroke-opacity:1" />
    <path
       style="fill:#00aced;fill-opacity:1;stroke:#00aced;stroke-width:0.08838835;stroke-miterlimit:4;stroke-dasharray:none;stroke-opacity:1"
       d="m 283.85791,57.549141 c -0.51285,-4.428543 -4.15491,-8.891006 -1.84375,-12.519389 l -1.37251,-1.787575 4.31205,-1.317783 c 3.63034,-0.734867 6.70807,-1.415257 10.43857,-2.097936 0.14987,0 -0.0228,-0.02704 -0.007,-0.07442 9.6899,-1.480076 15.72388,-5.739024 24.16947,-7.375795 -0.41708,0.759258 0,0 -0.5626,0.990606 -1.18385,1.986635 -0.53623,0.889597 -1.18385,1.986635 -1.48363,2.047849 -2.92473,3.925013 -4.46086,6.136309 -1.6683,2.813404 -4.30414,4.987435 -5.89989,6.924431 -4.36803,4.989201 -9.26088,8.495945 -16.09665,13.661699 -1.41654,1.061945 -3.55695,2.920928 -3.58667,2.920928 -0.824,-2.394689 -3.50874,-5.057534 -3.90631,-7.44771 z"
       id="path6920"
       inkscape:connector-curvature="0"
       sodipodi:nodetypes="cscccccccccccc"
       transform="translate(0,792.36218)" />
    <path
       style="fill:#00aced;fill-opacity:1;stroke:#00aced;stroke-width:0.49996811;stroke-miterlimit:4;stroke-dasharray:none;stroke-opacity:1"
       d="M 98.462284,258.66856 C 77.803836,257.36363 54.396443,252.1027 31.998937,243.73059 23.669961,240.61725 13.600006,236.32486 8.7180059,233.80692 l -2.9998087,-1.54717 1.9998725,-0.0273 c 11.0307203,-0.15048 32.7868493,-1.79594 37.2476253,-2.81712 6.543367,-1.49793 21.921822,-6.74444 26.888641,-9.17333 9.48777,-4.63974 28.910754,-16.77872 27.574416,-17.23347 -0.394064,-0.1341 -2.741355,-0.59898 -5.216197,-1.03307 -10.279145,-1.80295 -19.689565,-4.20017 -24.379256,-6.21041 -2.043209,-0.87582 -11.332847,-7.51342 -15.577795,-11.13059 -2.726575,-2.32334 -7.19136,-9.29556 -11.62796,-18.15824 l -3.759413,-7.5099 12.673168,-0.29844 c 12.858832,-0.3028 14.645953,-0.50823 15.117773,-1.73778 0.276987,-0.72181 -0.835387,-1.39493 -11.943999,-7.22762 -8.437173,-4.43003 -15.57197,-8.72571 -18.49882,-11.13767 -2.928841,-2.41361 -12.238696,-13.18933 -14.517064,-16.80282 -1.96359,-3.11424 -3.51767,-7.7789 -4.477625,-13.43983 -0.79485,-4.68728 -1.810939,-14.711383 -1.520641,-15.001684 0.09746,-0.09746 2.979795,0.94497 6.405179,2.316517 8.393585,3.360851 13.423088,4.735127 17.524996,4.788567 2.750164,0.0358 3.543521,-0.13142 4.075926,-0.859262 0.595258,-0.813763 -0.0123,-1.560481 -6.101974,-7.499522 C 26.570822,81.305482 20.36481,72.85917 18.248156,65.722265 17.197451,62.179514 16.213286,49.488614 16.270784,40.223891 c 0.03926,-6.325715 0.215541,-7.822945 1.383341,-11.749251 0.736091,-2.474842 2.459921,-6.829219 3.830733,-9.676393 l 2.492386,-5.17668 6.526234,6.176616 c 22.477456,21.273314 37.07027,33.580055 46.585689,39.287689 3.486008,2.091014 4.201222,2.407431 17.623356,7.796694 4.39972,1.766578 10.162267,4.120173 12.805667,5.230212 2.64339,1.110034 6.46814,2.483692 8.49945,3.052575 7.72404,2.163162 22.91552,4.188988 36.45265,4.86105 l 6.76102,0.335659 c 11.91668,40.893468 127.82018,-20.854098 127.76682,-2.249344 -1.08841,21.58443 -6.41349,55.414572 -17.00924,76.529082 -12.57078,25.05019 -33.3774,48.93461 -58.28382,66.90539 -21.43653,15.46714 -47.40404,28.28529 -67.4957,33.31742 -8.68163,2.17439 -15.74141,3.22808 -25.74836,3.84301 -8.66507,0.53248 -11.02356,0.52787 -19.998721,-0.0391 l 5e-6,-10e-6 z"
       id="path6924"
       inkscape:connector-curvature="0"
       transform="translate(0,792.36218)"
       sodipodi:nodetypes="csscsssssssscsssssssscsssssscssssssccssssccc" />
  </g>
</svg>
